<svg xmlns="http://www.w3.org/2000/svg" viewBox="0 0 108 108"><defs><linearGradient id="jezdan_sky" x1="20" y1="0" x2="88" y2="108" gradientUnits="userSpaceOnUse"><stop offset="0.0" stop-color="#8FBE85"/><stop offset="0.5" stop-color="#689B62"/><stop offset="1.0" stop-color="#3B6B3E"/></linearGradient><radialGradient id="jezdan_dawn" cx="30" cy="20" r="115" gradientUnits="userSpaceOnUse"><stop offset="0.0" stop-color="#E0F0DC" stop-opacity="0.30"/><stop offset="0.45" stop-color="#E0F0DC" stop-opacity="0.14"/><stop offset="0.85" stop-color="#E0F0DC" stop-opacity="0.05"/><stop offset="1.0" stop-color="#E0F0DC" stop-opacity="0.00"/></radialGradient></defs><path d="M0,0h108v108h-108z" fill="url(#jezdan_sky)"/><path d="M0,0h108v108h-108z" fill="url(#jezdan_dawn)"/><g transform="translate(54 54) scale(1.05) translate(-54 -54)"><path d="M41,54 V44 A13,13 0 0 1 67,44 V54 H60 V44 A6,6 0 0 0 48,44 V54 Z" fill="#FDF3D8"/><g transform="translate(54 61) rotate(-8) translate(-54 -61)"><path d="M33,50h42a3,3 0 0 1 3,3v14a3,3 0 0 1 -3,3H33a3,3 0 0 1 -3,-3V53a3,3 0 0 1 3,-3z" fill="#A2CF95"/></g><g transform="translate(54 61) rotate(-3) translate(-54 -61)"><path d="M32,53h44a3,3 0 0 1 3,3v14a3,3 0 0 1 -3,3H32a3,3 0 0 1 -3,-3V56a3,3 0 0 1 3,-3z" fill="#C4E4B9"/></g><g transform="translate(54 61) rotate(3) translate(-54 -61)"><path d="M31,56h46a3,3 0 0 1 3,3v14a3,3 0 0 1 -3,3H31a3,3 0 0 1 -3,-3V59a3,3 0 0 1 3,-3z" fill="#E6F6DF"/><path d="M49.5,66a4.5,4.5 0 1 0 9,0a4.5,4.5 0 1 0 -9,0" fill="#8FCB85"/></g><path d="M43.8,38.1 A11.8,11.8 0 0 1 64.2,38.1" fill="none" stroke="#FFFDF2" stroke-opacity=".68" stroke-width="1.2"/></g><path d="M84.8,24a1.2,1.2 0 1 0 2.4,0a1.2,1.2 0 1 0 -2.4,0" fill="#FFFFFF" fill-opacity="0.48"/><path d="M21,80a1,1 0 1 0 2,0a1,1 0 1 0 -2,0" fill="#FFFFFF" fill-opacity="0.41"/></svg>