<svg xmlns="http://www.w3.org/2000/svg" viewBox="0 0 108 108"><defs><linearGradient id="wathaiq_sky" x1="20" y1="0" x2="88" y2="108" gradientUnits="userSpaceOnUse"><stop offset="0.0" stop-color="#A98A5C"/><stop offset="0.5" stop-color="#7A5A38"/><stop offset="1.0" stop-color="#46311C"/></linearGradient><radialGradient id="wathaiq_dawn" cx="30" cy="20" r="115" gradientUnits="userSpaceOnUse"><stop offset="0.0" stop-color="#F4EBDA" stop-opacity="0.30"/><stop offset="0.45" stop-color="#F4EBDA" stop-opacity="0.14"/><stop offset="0.85" stop-color="#F4EBDA" stop-opacity="0.05"/><stop offset="1.0" stop-color="#F4EBDA" stop-opacity="0.00"/></radialGradient></defs><path d="M0,0h108v108h-108z" fill="url(#wathaiq_sky)"/><path d="M0,0h108v108h-108z" fill="url(#wathaiq_dawn)"/><g transform="translate(54 54) scale(0.98) translate(-54 -54)"><path fill="#FDF3D8" d="M36,28 h36 a8,8 0 0 1 8,8 v36 a8,8 0 0 1 -8,8 h-36 a8,8 0 0 1 -8,-8 v-36 a8,8 0 0 1 8,-8 z"/><path fill="#D8BC8C" d="M61.9,28 h4.2 v52 h-4.2 z"/><path stroke="#46311C" stroke-width="3.2" stroke-linecap="round" fill="none" d="M36,42 h18 M36,52 h18 M36,62 h11"/><path fill="#46311C" d="M64,54 m-4.4,0 a4.4,4.4 0 1,0 8.8,0 a4.4,4.4 0 1,0 -8.8,0"/></g><path fill="#FFFFFF" fill-opacity="0.48" d="M20,16 a1.1,1.1 0 1 0 2.2,0 a1.1,1.1 0 1 0 -2.2,0"/><path fill="#FFFFFF" fill-opacity="0.41" d="M87,26 a0.9,0.9 0 1 0 1.8,0 a0.9,0.9 0 1 0 -1.8,0"/></svg>